<svg xmlns="http://www.w3.org/2000/svg" viewBox="0 0 48 64"><path d="M41.65.5v46c.08 8.15.88 9.55 6 10v.83c-8 2.22-11.25 3.21-20.28 6.25v-6.67c-3.87 4.53-7.83 6.59-12.27 6.59C6.59 63.5.38 55.44.38 44.41c0-13.39 9.76-24.17 22-24.17h.08a11.83 11.83 0 0 1 4.93 1.07V18.1c.17-7.76-1.69-10.77-6.85-10.94l-.16-.9A177.67 177.67 0 0 0 41.65.5" fill="transparent" stroke="#000" stroke-miterlimit="10" style="animation:d-anim 6s linear 0s infinite
" stroke-dasharray="217" stroke-dashoffset="-217" stroke-width=".5"></path><path d="M22.41 58.32c1.93 0 3.06-.66 4.93-2.79V25.92c0-2.8-1.54-4.61-4-4.61-5.08 0-7.83 7.32-7.83 20.81 0 11.44 2.12 16.2 7 16.2" fill="transparent" stroke="#000" stroke-miterlimit="10" style="animation:din-anim 6s linear 0s infinite
" stroke-dasharray="88" stroke-dashoffset="-88" stroke-width=".5"></path><style>@keyframes d-anim{0%{stroke-dashoffset:-217px}33%,66%{stroke-dashoffset:0}}@keyframes din-anim{0%{stroke-dashoffset:-88px}33%,66%{stroke-dashoffset:0}}
</style></svg>